<svg xmlns="http://www.w3.org/2000/svg" viewBox="0 0 198.953 135.904"><g data-name="Layer 2"><g data-name="ART"><path d="M91.038 125.828c.005-.026.006-.052.012-.078.803-4.71 16.565-97.209 19.1-112.057.029-.166.07-.329.112-.49-6.87-4.484-22.086-7.901-44.085-9.892-15.202-1.376-28.945-1.638-31.775-1.679L14.946 114.251c7.114.523 61.133 4.688 76.092 11.577zM99.888 123.58a187.607 187.607 0 0119.225 1.333l.032.003h.004c1.752.19 3.603.402 5.584.641 13.79 1.664 27.492 3.876 30.483 4.367l23.172-118.022c-2.616-.489-13.208-2.404-25.236-3.698l-11.924 71.484a.624.624 0 01-1.092.303l-7.169-8.422-6.778 5.492a.625.625 0 01-1.01-.586l11.325-69.459c-9.752-.252-18.49.522-22.693 3.425a5.246 5.246 0 00-2.43 3.463c-2.392 14.007-16.557 97.132-18.825 110.445 1.14-.423 3.26-.77 7.332-.77z" fill="#fff"/><path d="M108.606 26.46c22.24-7.251 54.909 0 54.909 0l-7.279 34.782s-35.657-5.51-53.413-.856zM100.647 73.155c16.88-5.67 52.88 1.405 52.88 1.405l-8.74 43.073s-37.525-6.867-51.224-2.913z" fill="#f0f6fc"/><path d="M125.482 77.116c1.15.409 1.67.37 2.19 0s5.497-4.637 5.497-4.637 6.52 8.48 7.456 8.375 1.197-.247 1.353-1.268 11.1-70.934 11.1-70.934z" fill="#c4d7e9"/><path d="M14.17 115.446a.624.624 0 01-.571-.728L33.1 1.836l-3.37.832-.006.001-3.31.817L7.663 115.688c59.214 2.64 78.6 11.11 80.376 11.944l3.909.286a4.95 4.95 0 01-.376-.426c-13.47-7.433-76.763-12-77.402-12.046zM179.59 12.26l-23.266 118.498a.625.625 0 01-.612.504.6.6 0 01-.103-.008 755.3 755.3 0 00-11.592-1.812c10.86 2.09 21.74 4.209 24.41 4.73l22.158-117.588z" fill="#f0f6fc"/><path d="M156.307 130.804a.62.62 0 01-.595.458.6.6 0 01-.103-.008 755.3 755.3 0 00-11.592-1.812c10.86 2.09 21.74 4.209 24.41 4.73l.002-.006zM14.17 115.446a.623.623 0 01-.448-.237.61.61 0 01-.117-.316l-5.922.676-.02.119c59.214 2.64 78.6 11.11 80.376 11.944l3.909.286a4.95 4.95 0 01-.376-.426c-13.47-7.433-76.763-12-77.402-12.046z" fill="#c4d7e9"/><path d="M101.505 26.492l-2.289 12.485s-31.837-8.948-59.304-8.74l2.29-12.693s35.79-1.04 59.303 8.948zM38.04 38.977L35.126 57.08c44.53 2.914 60.118 9.525 60.118 9.525l3.972-18.888a197.68 197.68 0 00-61.176-8.74zM32.63 68.492L27.01 101.82a288.169 288.169 0 0160.969 9.78l6.242-33.294s-16.854-6.36-61.593-9.813z" fill="#f0f6fc"/><path d="M25.717 2.372l.133-.032-1.461-.143L1.745 113.362l4.925.692L25.25 2.875a.624.624 0 01.467-.503z" fill="#c5a7d4"/><path d="M132.655 70.215a.624.624 0 01.868.08l6.694 7.864 11.692-70.086c-4.66-.48-9.5-.86-14.146-1.019L126.675 75.06z" fill="#cedd3e"/><path d="M191.523 15.61a.624.624 0 01.385.697l-21.838 115.89 9.152 1.373L197.24 15.372l-9.749-1.345z" fill="#c5a7d4"/><path d="M92.272 126.035l-.006.013-.013.077c-.002.219.23.638.92 1.231a.624.624 0 01.186.666l4.82.353a2.02 2.02 0 01.158-1.366c.498-1.001 1.85-1.713 4.054-2.143-8.489-.256-9.91.724-10.12 1.169z" fill="#c4d7e9"/><path d="M119.015 126.158c-16.74-1.524-19.204.692-19.56 1.407a.88.88 0 00.023.769c1.925-.543 9.813-1.983 34.666.488-5.6-1.066-10.422-1.97-13.058-2.434q-1.062-.12-2.071-.23z" fill="#9569b8"/><path d="M155.713 131.638a.964.964 0 01-.166-.013c-37.398-6.25-61.3-7.674-62.922-5.448l-.003.019a3.553 3.553 0 00.796.876 1 1 0 11-1.304 1.516c-1.2-1.032-1.68-2.015-1.43-2.927.856-5.02 16.566-97.21 19.095-112.03a6.873 6.873 0 013.109-4.527c13.007-8.982 64.25.896 66.425 1.32a1.001 1.001 0 01.79 1.174l-23.41 119.233a1.001 1.001 0 01-.98.807zm-55.906-8.45c4.945 0 12.707.517 24.971 1.996 13.306 1.606 26.53 3.72 30.14 4.31l23.028-117.292c-7.271-1.345-52.548-9.308-63.921-1.452a4.89 4.89 0 00-2.274 3.216c-2.356 13.803-16.143 94.708-18.717 109.815a27.587 27.587 0 016.773-.593z" fill="#3e4147"/><path d="M91.966 127.995a.996.996 0 01-.489-.128c-13.21-7.42-76.694-12-77.334-12.046a1 1 0 01-.914-1.167L32.892.832a1 1 0 01.986-.83h.008c2.485.021 61.05.655 77.674 12.11a1 1 0 01-1.135 1.647C95.355 3.375 42.107 2.135 34.717 2.013l-19.33 111.894c8.837.658 64.292 5.04 77.07 12.216a1 1 0 01-.491 1.872z" fill="#3e4147"/><path d="M99.215 130.078q-.036 0-.072-.003l-11.34-.832a.999.999 0 01-.367-.099c-.188-.092-19.496-9.205-80.549-11.864a1 1 0 01-.943-1.164L24.88 2.813a1 1 0 01.747-.806l8.01-1.976a1 1 0 01.48 1.941l-7.373 1.82-18.64 111.54c58.275 2.632 77.864 10.93 80.03 11.93l9.616.705a2.355 2.355 0 01.251-1.126c.497-1 2.01-4.046 21.179-2.3a1 1 0 01.905 1.087.99.99 0 01-1.087.906c-16.895-1.541-18.96.723-19.203 1.191-.156.302.168.687.171.69a1.011 1.011 0 01.137 1.108.999.999 0 01-.888.555zM168.925 135.904a.974.974 0 01-.191-.019c-.382-.074-38.266-7.465-47.728-9.132a1 1 0 11.346-1.968c8.617 1.516 40.716 7.763 46.777 8.945l22.03-116.91-11.403-4.483a1 1 0 11.731-1.862l12.173 4.786a1 1 0 01.617 1.117l-22.37 118.711a1 1 0 01-.982.815z" fill="#3e4147"/><path d="M150.896 132.218a.792.792 0 01-.107-.006c-42.857-5.635-51.168-2.421-51.247-2.387a.819.819 0 01-1.067-.424.81.81 0 01.405-1.065c.32-.147 8.353-3.496 52.121 2.26a.815.815 0 01-.105 1.622zM179.747 135.28a1.11 1.11 0 01-.15-.01l-10.409-1.562a1 1 0 01.297-1.979l9.422 1.414L196.81 15.691l-14.556-2.009a1 1 0 11.273-1.98l15.562 2.147a1 1 0 01.852 1.14L180.734 134.43a1 1 0 01-.987.85zM6.932 115.72a.983.983 0 01-.14-.01l-5.931-.832a1 1 0 01-.84-1.19L22.91 1.323a1.01 1.01 0 011.076-.796l5.652.55a1 1 0 01.898 1.092 1.011 1.011 0 01-1.092.898l-4.754-.462-22.498 110.44 4.878.685a1 1 0 01-.138 1.99zM140.612 80.586a1 1 0 01-.762-.352l-6.93-8.143-6.495 5.262a1 1 0 01-1.616-.938l11.407-69.968a1 1 0 111.974.322l-10.985 67.378 5.214-4.225a1.001 1.001 0 011.39.13l6.17 7.247 11.67-69.955a1 1 0 111.973.328L141.598 79.75a1 1 0 01-.987.836z" fill="#3e4147"/></g></g></svg>
