<svg xmlns="http://www.w3.org/2000/svg" viewBox="0 0 138.814 226.413"><g data-name="Layer 2"><g data-name="ART"><path d="M99.218 195.073L61.955 59.433c-3.082-11.221-13.22-18.22-22.642-15.632l.568-.141a9.995 9.995 0 00-3.542 1.797 5.783 5.783 0 01-1.013.66L2.648 60.585c-1.845.907-1.354 2.924.688 2.827l24.011-2.771c2.892-.137 5.643 2.155 6.55 5.456.926 3.372-.34 6.81-2.99 8.112L8.922 83.424c-1.844.907-1.353 2.924.689 2.827l24.01-2.771c2.892-.137 5.643 2.155 6.55 5.456.927 3.372-.34 6.81-2.99 8.112l-21.984 9.215c-1.845.906-1.354 2.923.688 2.827l24.01-2.771c2.892-.137 5.644 2.155 6.55 5.456.927 3.372-.34 6.81-2.99 8.112l-21.984 9.215c-1.845.906-1.354 2.923.688 2.827l24.01-2.772c2.893-.136 5.644 2.155 6.55 5.456.927 3.373-.34 6.81-2.99 8.112l-21.984 9.216c-1.845.906-1.354 2.923.688 2.826l24.011-2.77c2.892-.138 5.643 2.154 6.55 5.455.927 3.373-.34 6.81-2.99 8.112l-21.985 9.216c-1.844.906-1.353 2.923.689 2.826l24.01-2.771c2.892-.137 5.643 2.155 6.55 5.456.927 3.373-.34 6.81-2.99 8.112l-21.984 9.215c-1.845.907-1.354 2.924.688 2.827l24.01-2.771c2.893-.137 5.644 2.155 6.55 5.456.927 3.372-.34 6.81-2.99 8.112l-21.984 9.215c-1.845.906-1.354 2.924.688 2.827l35.157-3.299a6.002 6.002 0 011.38.12 10.009 10.009 0 004.515-.169l-.568.142c9.422-2.589 14.561-13.784 11.478-25.005z" fill="#fdbe2a"/><path d="M47.165 224.783a3.053 3.053 0 01-3.16-2.147 3.127 3.127 0 011.902-3.526l22.065-9.252c1.906-.938 2.854-3.676 2.124-6.33-.702-2.557-2.725-4.36-4.855-4.36-.043 0-.087 0-.131.002l-23.956 2.765a1.158 1.158 0 01-.1.008 3.077 3.077 0 01-3.323-2.146 3.126 3.126 0 011.901-3.525l22.066-9.253c1.905-.938 2.853-3.675 2.124-6.33-.717-2.61-2.816-4.426-4.987-4.358l-23.956 2.766a1.162 1.162 0 01-.1.007 3.062 3.062 0 01-3.322-2.145 3.126 3.126 0 011.9-3.526l22.066-9.252c1.906-.939 2.854-3.677 2.124-6.332-.716-2.609-2.82-4.387-4.986-4.357l-23.956 2.766a1.166 1.166 0 01-.1.007 3.068 3.068 0 01-3.322-2.145 3.124 3.124 0 011.9-3.524l22.067-9.254c1.904-.939 2.853-3.676 2.124-6.33-.702-2.557-2.726-4.36-4.856-4.36l-.131.001-23.956 2.766a1.166 1.166 0 01-.1.008 3.06 3.06 0 01-3.322-2.147 3.127 3.127 0 011.901-3.524l22.066-9.253c1.904-.939 2.852-3.676 2.124-6.33-.717-2.608-2.77-4.422-4.988-4.359l-23.955 2.766a1.158 1.158 0 01-.1.008 3.07 3.07 0 01-3.323-2.147 3.126 3.126 0 011.902-3.524L36.6 95.664c1.904-.939 2.853-3.676 2.124-6.33-.717-2.61-2.772-4.417-4.986-4.358L9.783 87.741a1.162 1.162 0 01-.1.008 3.068 3.068 0 01-3.323-2.147 3.126 3.126 0 011.901-3.524l22.066-9.253c1.905-.938 2.853-3.676 2.124-6.33-.702-2.557-2.726-4.36-4.856-4.36l-.13.003-23.957 2.764a1.166 1.166 0 01-.1.008 3.055 3.055 0 01-3.322-2.147 3.126 3.126 0 011.9-3.524l32.732-14.493a4.483 4.483 0 00.693-.468 11.572 11.572 0 013.12-1.758 1.5 1.5 0 01.385-.165 17.756 17.756 0 0114.948 2.849 24.62 24.62 0 019.538 13.832l37.263 135.64c3.199 11.646-1.998 23.333-11.635 26.576a1.462 1.462 0 01-.325.13c-.166.047-.332.088-.5.126l-.103.025a1.385 1.385 0 01-.166.032 11.53 11.53 0 01-4.418.014 4.685 4.685 0 00-1.035-.096l-35.087 3.294q-.117.006-.231.006zm18.07-28.615c3.467 0 6.695 2.712 7.754 6.564 1.122 4.085-.465 8.23-3.776 9.857l-21.909 9.185 34.968-3.282a7.324 7.324 0 011.797.138 8.569 8.569 0 003.372-.026c8.546-2.418 13.179-12.768 10.331-23.133L60.509 59.83a21.616 21.616 0 00-8.35-12.158 14.91 14.91 0 00-11.853-2.575l-.027.008a8.504 8.504 0 00-3.014 1.53 7.122 7.122 0 01-1.277.827L3.396 61.895l23.78-2.744c.033-.004.067-.007.1-.008 3.63-.154 6.976 2.59 8.067 6.557 1.122 4.084-.465 8.228-3.775 9.855L9.682 84.732 33.45 81.99c.033-.004.067-.007.1-.008 3.6-.172 6.977 2.587 8.068 6.557 1.12 4.085-.466 8.23-3.776 9.855l-21.885 9.177 23.766-2.743a6.774 6.774 0 01.414-.016c3.468 0 6.697 2.712 7.755 6.566 1.121 4.085-.466 8.23-3.775 9.855L22.23 130.41l23.767-2.743c.033-.004.067-.007.1-.008 3.636-.161 6.978 2.59 8.069 6.557 1.12 4.086-.467 8.23-3.776 9.856l-21.887 9.177 23.768-2.743c.033-.004.067-.007.1-.008 3.636-.187 6.978 2.589 8.068 6.556 1.122 4.085-.465 8.23-3.775 9.857l-21.89 9.178 23.771-2.744c.034-.004.068-.007.101-.008 3.628-.183 6.978 2.589 8.067 6.556 1.122 4.085-.464 8.23-3.775 9.857l-21.886 9.177 23.768-2.744a6.79 6.79 0 01.414-.016z" fill="#3e4147"/><path d="M94.048 224.498c8.994 2.436 19.089-5.941 22.547-18.71a32.902 32.902 0 001.144-8.281l.087.07c3.763-32.345-8.684-66.051-8.684-66.051L106.262 1.5C76.929 31.817 87.236 116.374 87.236 116.374l11.137 19.613c8.609 20.064 9.054 34.112 7.989 42.229-8.941-2.252-18.906 6.08-22.337 18.751-3.459 12.77 1.03 25.095 10.023 27.53zm-2.261-28.16c1.912-7.064 7.496-11.698 12.472-10.35s7.458 8.165 5.545 15.229c-1.913 7.063-7.497 11.697-12.473 10.35-4.975-1.347-7.457-8.166-5.544-15.23z" fill="#f3783c"/><path fill="#d8e9f7" d="M104.362 106.032L101.535 7.32l4.727-5.82 1.562 96.645-3.462 7.887z"/><path d="M94.048 224.498c8.994 2.436 19.089-5.941 22.547-18.71a32.902 32.902 0 001.144-8.281l.087.07c3.763-32.345-8.684-66.051-8.684-66.051l-1.231-55.58c-7.523 5.857-15.332 11.506-22.292 16.365.415 14.197 1.617 24.063 1.617 24.063l11.137 19.613c8.609 20.064 9.054 34.112 7.989 42.229-8.941-2.252-18.906 6.08-22.337 18.751-3.459 12.77 1.03 25.095 10.023 27.53zm-2.261-28.16c1.912-7.064 7.496-11.698 12.472-10.35s7.458 8.165 5.545 15.229c-1.913 7.063-7.497 11.697-12.473 10.35-4.975-1.347-7.457-8.166-5.544-15.23z" fill="#df642f"/><path d="M97.188 226.413a13.473 13.473 0 01-3.531-.467c-4.835-1.31-8.635-5.154-10.7-10.825a31.092 31.092 0 01-.38-18.547c3.473-12.826 13.129-21.29 22.475-20.128.785-8.212-.15-21.41-8.025-39.79L85.93 117.113a1.509 1.509 0 01-.184-.559A317.867 317.867 0 0184.25 70.24c1.462-33.46 8.505-56.938 20.932-69.783a1.5 1.5 0 012.578 1.01l2.875 129.782c1.11 3.127 12.273 35.612 8.68 66.5a1.531 1.531 0 01-.088.361 34.465 34.465 0 01-1.185 8.07c-3.232 11.932-12.105 20.233-20.855 20.233zm6.2-47.065c-7.396 0-15.058 7.461-17.915 18.01a28.082 28.082 0 00.303 16.737c1.722 4.728 4.799 7.908 8.664 8.955 8.186 2.22 17.47-5.704 20.706-17.655a31.399 31.399 0 001.093-7.903 1.495 1.495 0 01.162-.664c3.467-31.451-8.543-64.45-8.666-64.782a1.507 1.507 0 01-.093-.487L104.846 5.373C80.216 36.01 88.09 110.578 88.691 115.898l10.986 19.349a1.619 1.619 0 01.075.148c8.698 20.273 9.205 34.581 8.097 43.016a1.499 1.499 0 01-1.853 1.259 10.694 10.694 0 00-2.609-.322zm-4.278 33.956a8.324 8.324 0 01-2.171-.289c-5.766-1.562-8.727-9.22-6.6-17.07a17.876 17.876 0 015.578-9.092c2.742-2.275 5.843-3.093 8.735-2.314 5.765 1.561 8.726 9.219 6.6 17.07a17.872 17.872 0 01-5.578 9.091 10.338 10.338 0 01-6.564 2.604zm3.388-26.05a7.414 7.414 0 00-4.665 1.908 14.86 14.86 0 00-4.598 7.568c-1.694 6.253.32 12.26 4.49 13.389a6.73 6.73 0 006.033-1.728 14.852 14.852 0 004.598-7.567c1.693-6.254-.32-12.26-4.49-13.389a5.214 5.214 0 00-1.368-.18zm-10.711 9.084z" fill="#3e4147"/><path d="M79.96 193.288c1.65-13.023-4.394-24.521-13.519-25.842 2.104-7.912 7.863-20.733 23.46-36.01l17.764-13.898s41.714-74.27 26.129-113.47L81.64 123.213s-24.338 26.432-33.17 57.774l.108-.032a32.904 32.904 0 00-2.094 8.094c-1.662 13.124 4.484 24.712 13.728 25.883s18.086-8.52 19.748-21.643zm-17.862 8.436c-5.114-.648-8.514-7.058-7.595-14.319s5.81-12.62 10.925-11.972c5.113.647 8.513 7.058 7.594 14.318-.92 7.26-5.81 12.62-10.924 11.973z" fill="#f3783c"/><path d="M83.686 121.482l4.915-5.983a19.93 19.93 0 002.687-4.28l45.041-97.307a.601.601 0 00.035-.41l-2.122-7.79a.601.601 0 00-1.131-.082L82.67 120.859a.601.601 0 001.015.623z" fill="#d8e9f7"/><path d="M61.75 216.53a13.668 13.668 0 01-1.726-.11c-10.05-1.274-16.792-13.637-15.028-27.56a34.489 34.489 0 011.975-7.914 1.48 1.48 0 01.056-.367c8.434-29.932 31.12-55.724 33.337-58.192l52.055-118.92a1.587 1.587 0 011.4-.899 1.5 1.5 0 011.368.946c6.604 16.608 4.18 41-7.202 72.498a317.728 317.728 0 01-19.013 42.26 1.505 1.505 0 01-.383.448l-17.697 13.846c-14.278 14.001-20.167 25.849-22.567 33.742 9.101 2.482 14.792 13.986 13.123 27.168l-1.489-.188 1.489.188a31.1 31.1 0 01-7.41 17.005c-3.597 3.943-7.905 6.048-12.288 6.048zm-11.677-35.695a1.487 1.487 0 01-.103.677 31.46 31.46 0 00-1.998 7.724c-1.555 12.283 4.02 23.143 12.429 24.207 3.973.506 8.028-1.267 11.42-4.984a28.078 28.078 0 006.65-15.36c1.536-12.127-3.957-22.968-12.245-24.169a1.5 1.5 0 01-1.234-1.87c2.186-8.221 8.101-21.261 23.86-36.695a1.654 1.654 0 01.125-.11l17.523-13.71c2.58-4.692 38.246-70.65 27.128-108.357L83.014 123.813a1.493 1.493 0 01-.27.414c-.24.261-23.911 26.228-32.671 56.608zm12.846 22.441a8.014 8.014 0 01-1.01-.063c-5.926-.752-9.916-7.928-8.894-15.996s6.675-14.028 12.6-13.273c5.927.75 9.917 7.926 8.895 15.995-.964 7.609-6.045 13.337-11.59 13.337zm-.633-3.04c4.284.55 8.433-4.245 9.248-10.674.813-6.427-2.01-12.1-6.295-12.641-4.272-.541-8.432 4.245-9.247 10.673-.815 6.427 2.008 12.1 6.294 12.642z" fill="#3e4147"/><circle cx="98.074" cy="112.263" r="3.381" fill="#70b1de"/><path d="M98.073 116.584a4.355 4.355 0 11.08-.001h-.08zm.002-6.761a2.44 2.44 0 00-1.695 4.197 2.441 2.441 0 101.695-4.197z" fill="#3e4147"/></g></g></svg>
